<svg width="250" height="95.42" viewBox="0 0 600 229" fill="none" xmlns="http://www.w3.org/2000/svg">
<path d="M100.873 104.485C104.163 104.485 106.567 103.692 108.083 102.105C109.623 100.518 110.393 98.3483 110.393 95.595C110.393 94.335 110.195 93.1917 109.798 92.165C109.425 91.115 108.842 90.2283 108.048 89.505C107.278 88.7583 106.298 88.1867 105.108 87.79C103.918 87.3933 102.507 87.195 100.873 87.195H94.2233V104.485H100.873ZM100.873 79.215C104.35 79.215 107.348 79.6233 109.868 80.44C112.412 81.2567 114.5 82.4 116.133 83.87C117.767 85.3167 118.968 87.0433 119.738 89.05C120.532 91.0567 120.928 93.2383 120.928 95.595C120.928 98.0917 120.52 100.378 119.703 102.455C118.887 104.532 117.65 106.317 115.993 107.81C114.337 109.303 112.248 110.47 109.728 111.31C107.208 112.127 104.257 112.535 100.873 112.535H94.2233V130H83.7233V79.215H100.873ZM185.744 79.215V130H175.174V108.125H152.809V130H142.239V79.215H152.809V100.775H175.174V79.215H185.744ZM233.08 110.47V130H222.58V110.47L204.135 79.215H213.375C214.285 79.215 215.008 79.4367 215.545 79.88C216.105 80.3 216.548 80.8483 216.875 81.525L225.205 97.52C225.765 98.5933 226.266 99.5967 226.71 100.53C227.176 101.463 227.585 102.397 227.935 103.33C228.261 102.397 228.635 101.463 229.055 100.53C229.498 99.5733 229.988 98.57 230.525 97.52L238.785 81.525C239.065 80.965 239.485 80.44 240.045 79.95C240.605 79.46 241.328 79.215 242.215 79.215H251.525L233.08 110.47ZM297.444 88.945C297.118 89.4817 296.779 89.8783 296.429 90.135C296.103 90.3683 295.671 90.485 295.134 90.485C294.621 90.485 294.061 90.31 293.454 89.96C292.871 89.5867 292.183 89.19 291.389 88.77C290.596 88.35 289.686 87.965 288.659 87.615C287.633 87.2417 286.431 87.055 285.054 87.055C282.628 87.055 280.808 87.6033 279.594 88.7C278.381 89.7733 277.774 91.185 277.774 92.935C277.774 94.055 278.101 94.9883 278.754 95.735C279.431 96.4583 280.306 97.0883 281.379 97.625C282.476 98.1617 283.713 98.64 285.089 99.06C286.466 99.48 287.878 99.9467 289.324 100.46C290.771 100.95 292.183 101.533 293.559 102.21C294.936 102.887 296.161 103.738 297.234 104.765C298.331 105.792 299.206 107.052 299.859 108.545C300.536 110.015 300.874 111.812 300.874 113.935C300.874 116.245 300.466 118.415 299.649 120.445C298.856 122.452 297.701 124.213 296.184 125.73C294.668 127.223 292.789 128.402 290.549 129.265C288.333 130.128 285.813 130.56 282.989 130.56C281.379 130.56 279.769 130.397 278.159 130.07C276.573 129.743 275.033 129.288 273.539 128.705C272.069 128.122 270.681 127.422 269.374 126.605C268.068 125.788 266.924 124.878 265.944 123.875L269.024 118.905C269.281 118.532 269.619 118.228 270.039 117.995C270.459 117.738 270.903 117.61 271.369 117.61C271.999 117.61 272.664 117.843 273.364 118.31C274.064 118.777 274.869 119.29 275.779 119.85C276.689 120.41 277.739 120.923 278.929 121.39C280.143 121.857 281.589 122.09 283.269 122.09C285.719 122.09 287.609 121.53 288.939 120.41C290.293 119.29 290.969 117.622 290.969 115.405C290.969 114.122 290.631 113.083 289.954 112.29C289.301 111.497 288.438 110.832 287.364 110.295C286.291 109.758 285.066 109.303 283.689 108.93C282.313 108.533 280.901 108.102 279.454 107.635C278.008 107.168 276.596 106.608 275.219 105.955C273.843 105.302 272.618 104.438 271.544 103.365C270.471 102.292 269.596 100.962 268.919 99.375C268.266 97.7883 267.939 95.8167 267.939 93.46C267.939 91.57 268.313 89.7383 269.059 87.965C269.806 86.1917 270.903 84.6167 272.349 83.24C273.796 81.8633 275.569 80.755 277.669 79.915C279.793 79.075 282.219 78.655 284.949 78.655C288.006 78.655 290.829 79.1333 293.419 80.09C296.033 81.0233 298.238 82.33 300.034 84.01L297.444 88.945ZM335.67 130H325.1V79.215H335.67V130ZM397.483 117.505C398.066 117.505 398.556 117.715 398.953 118.135L403.118 122.58C401.065 125.193 398.51 127.177 395.453 128.53C392.42 129.883 388.803 130.56 384.603 130.56C380.8 130.56 377.381 129.918 374.348 128.635C371.315 127.328 368.736 125.52 366.613 123.21C364.49 120.9 362.856 118.158 361.713 114.985C360.57 111.812 359.998 108.347 359.998 104.59C359.998 102.07 360.266 99.6783 360.803 97.415C361.363 95.1283 362.168 93.0283 363.218 91.115C364.268 89.2017 365.528 87.475 366.998 85.935C368.491 84.395 370.171 83.0883 372.038 82.015C373.905 80.9183 375.935 80.09 378.128 79.53C380.345 78.9467 382.701 78.655 385.198 78.655C387.065 78.655 388.826 78.8183 390.483 79.145C392.163 79.4717 393.726 79.9267 395.173 80.51C396.62 81.0933 397.95 81.805 399.163 82.645C400.4 83.4617 401.508 84.36 402.488 85.34L398.953 90.17C398.743 90.4733 398.475 90.7417 398.148 90.975C397.821 91.2083 397.378 91.325 396.818 91.325C396.258 91.325 395.686 91.1267 395.103 90.73C394.543 90.3333 393.843 89.89 393.003 89.4C392.186 88.91 391.148 88.4667 389.888 88.07C388.651 87.6733 387.076 87.475 385.163 87.475C383.04 87.475 381.091 87.86 379.318 88.63C377.545 89.4 376.016 90.52 374.733 91.99C373.473 93.4367 372.493 95.2217 371.793 97.345C371.093 99.4683 370.743 101.883 370.743 104.59C370.743 107.32 371.116 109.758 371.863 111.905C372.633 114.028 373.671 115.825 374.978 117.295C376.308 118.765 377.848 119.885 379.598 120.655C381.371 121.402 383.261 121.775 385.268 121.775C386.458 121.775 387.531 121.717 388.488 121.6C389.468 121.483 390.366 121.285 391.183 121.005C392.023 120.725 392.805 120.363 393.528 119.92C394.275 119.477 395.021 118.917 395.768 118.24C396.025 118.03 396.293 117.855 396.573 117.715C396.853 117.575 397.156 117.505 397.483 117.505ZM455.792 121.46V130H425.657V79.215H436.157V121.46H455.792ZM487.291 87.44V100.495H504.231V108.44H487.291V121.775H509.061V130H476.721V79.215H509.061V87.44H487.291Z" fill="#5A38FD"/>
</svg>
