<svg width="500" height="187" viewBox="0 0 1401 526" fill="none" xmlns="http://www.w3.org/2000/svg">
<g clip-path="url(#clip0)">
<path d="M1026.93 164.43H489.34C479.52 164.43 471.56 172.39 471.56 182.21V503.87C471.56 513.69 479.52 521.65 489.34 521.65H1026.93C1036.75 521.65 1044.71 513.69 1044.71 503.87V182.21C1044.71 172.39 1036.75 164.43 1026.93 164.43Z" fill="white" stroke="#222433" stroke-width="6" stroke-linecap="round" stroke-linejoin="round"/>
<path d="M478.45 168.17L747.66 377.55C750.644 379.925 754.346 381.219 758.16 381.219C761.974 381.219 765.676 379.925 768.66 377.55L1037.87 168.17" stroke="#222433" stroke-width="6" stroke-linecap="round" stroke-linejoin="round"/>
<path d="M477.72 455.33L641.96 295.6" stroke="#222433" stroke-width="6" stroke-linecap="round" stroke-linejoin="round"/>
<path d="M875.77 295.6L1043.16 458.39" stroke="#222433" stroke-width="6" stroke-linecap="round" stroke-linejoin="round"/>
<path d="M323 288.57L387.32 276.7C387.32 276.7 358.32 203.47 411.78 116.83C465.24 30.19 559.91 60.22 615.67 99.4C615.67 99.4 549.29 -8.23002 466.01 14.77C382.73 37.77 342.1 88.89 325.76 176.59C309.42 264.29 323 288.57 323 288.57Z" fill="white" stroke="#222433" stroke-width="6" stroke-linecap="round" stroke-linejoin="round"/>
<path d="M287.38 343C284.57 316.24 296.82 290.12 342.66 275.13C388.5 260.14 434.74 292.26 437.39 302.06C440.04 311.86 504.73 486.36 433.13 503.59C361.53 520.82 303.44 460.84 297.5 428.52C291.56 396.2 287.38 343 287.38 343Z" fill="white" stroke="#222433" stroke-width="6" stroke-linecap="round" stroke-linejoin="round"/>
<path d="M417.9 352.34C413.9 340.61 388.53 308.69 365.9 328.98C343.27 349.27 359.9 431.53 406.5 423.31C453.1 415.09 417.9 352.34 417.9 352.34Z" stroke="#222433" stroke-width="6" stroke-linecap="round" stroke-linejoin="round"/>
<path d="M622 256.46C597.73 242.65 542.19 224.63 510.93 236.83C479.67 249.03 421.78 279.05 407.93 407.83C394.08 536.61 547 516.14 547 516.14L622 256.46Z" fill="white" stroke="#222433" stroke-width="6" stroke-linecap="round" stroke-linejoin="round"/>
<path d="M656.86 274.69C658.77 264.57 663.25 241.74 663.25 241.74C669.14 212.81 674.62 185.74 673.5 158.2C671.21 101.59 635.23 51.43 595.82 30.55C510.32 -14.76 455 3.72999 455 3.72999C271.64 65.73 304.92 267.73 308.88 288.62C272.07 306.5 256.4 331.24 259.17 365.85C261.31 384.73 258.81 476.97 305.53 503.15C352.25 529.33 398.94 521.83 429.53 504.43C359.8 518.66 309.71 454.33 303.87 422.55C297.94 390.23 293.87 342.4 293.87 342.4C291.6 320.82 301.23 297.97 333.39 281.7L333.23 280.1H333.29C333.23 279.77 333.18 279.43 333.13 279.1L332.96 277.45L332.89 277.53C328.4 247.8 321.1 170 357.65 108.1C404.49 28.73 458.49 24.17 458.49 24.17C561.29 8.99999 599 120.89 596.67 181.78C594.56 236.46 563.87 249.46 557.67 251.55C549.941 250.672 542.123 252.061 535.17 255.55C512.69 259.55 475.97 309.5 454.17 359.55C454.17 359.69 454.25 359.84 454.28 359.99L453.75 360.51C443.54 384.15 436.75 407.73 436.34 426.37C434.021 436.21 434.315 446.485 437.192 456.176C440.068 465.867 445.428 474.639 452.74 481.62L462.43 479.62C461.484 482.1 460.284 484.476 458.85 486.71C461.422 488.561 464.141 490.2 466.98 491.61L516.98 516.34C522.196 518.91 527.869 520.423 533.672 520.79C539.476 521.158 545.294 520.374 550.793 518.484C556.292 516.593 561.363 513.633 565.713 509.774C570.063 505.916 573.607 501.234 576.14 496L577.62 493C600.62 496 630.89 472.84 649.51 436.11C669.02 397.62 668.95 357.65 650.44 342.25C651.64 330.88 651.24 313.69 654.31 290.61C655.09 285.21 655.94 279.903 656.86 274.69Z" fill="#5A38FD"/>
<path d="M569 470C484.67 489.69 335.83 485.62 173.75 456.6L172.75 459.41C171.319 455.302 168.863 451.627 165.615 448.733C162.368 445.838 158.435 443.82 154.19 442.87L111 433.21C104.378 431.728 97.4377 432.937 91.7067 436.572C85.9757 440.206 81.923 445.968 80.44 452.59L80 454.73C79.2647 458.009 79.1824 461.4 79.758 464.71C80.3335 468.02 81.5556 471.185 83.3543 474.023C85.1531 476.861 87.4933 479.316 90.2413 481.25C92.9893 483.183 96.0913 484.556 99.37 485.29L142.53 495C145.845 495.744 149.275 495.818 152.619 495.217C155.962 494.616 159.152 493.352 162 491.5L161.46 493.1C161.46 493.1 319.8 540.67 549.16 520.77C549.15 520.77 569.3 472.51 569 470Z" fill="#5A38FD"/>
<path d="M443.73 479.3C443.73 479.3 530.73 491.12 555.73 456.61C591.07 450.28 579.29 499.27 579.29 499.27" stroke="white" stroke-width="6" stroke-linecap="round" stroke-linejoin="round"/>
<path d="M637.22 339C637.22 339 590.22 316.19 555.76 456.62" stroke="white" stroke-width="6" stroke-linecap="round" stroke-linejoin="round"/>
<path d="M1230.72 501.09L1184.05 520.09L681.71 518.76C677.36 518.76 673.85 513.48 673.87 507L673.93 486.34C673.93 479.86 677.48 474.62 681.82 474.63L1184.17 476L1230.74 495.24C1232.75 496 1232.74 500.27 1230.72 501.09Z" fill="#82B1FF"/>
<path d="M691.64 520.9L691.79 458.03L815.32 460.57" stroke="#222433" stroke-width="6" stroke-linecap="round" stroke-linejoin="round"/>
<path d="M866.68 495.93H753.48" stroke="white" stroke-width="6" stroke-linecap="round" stroke-linejoin="round"/>
<path d="M3 522.55H1397.89" stroke="#222433" stroke-width="6" stroke-linecap="round" stroke-linejoin="round"/>
</g>
<defs>
<clipPath id="clip0">
<rect width="1400.89" height="525.64" fill="white"/>
</clipPath>
</defs>
</svg>
